# xmcd
#
# Track frame offsets:
#	150
#	15245
#	30420
#	48865
#	66265
#	82465
#	95215
#	104625
#	120785
#	139910
#	160965
#	177340
#	189285
#	213010
#	237625
#	250010
#	271120
#	285920
#	298315
#	316635
#
# Disc length: 4449 seconds
#
# Revision: 1
# Processed by: cddbd v1.5.2PL0 Copyright (c) Steve Scherf et al.
# Submitted via: audiograbber 1.83.01
#
DISCID=16115f14
DTITLE=Various Artist - ומתוק הקול באזניים - משירי שנות ה-70
DYEAR=1900
DGENRE=
TTITLE0=ששי קשת - ומתוק האור בעיניים
TTITLE1=יגאל בשן - מה נשתנה
TTITLE2=שלמה ארצי - ממלינדה
TTITLE3=אילן ואילנית - רינגולי
TTITLE4=יורם ארבל וגלי עטרי - שוקולי
TTITLE5=אריק לביא - גיל נסע לחו"ל
TTITLE6=להקת פיקוד דיזינגוף - העולם כולו נגדינו
TTITLE7=דורית פן - שיר עם
TTITLE8=אילנית ויגאל בשן - כשיבוא שלום לארץ
TTITLE9=גן עדן - שלום ואהבה
TTITLE10=פרפר אטומי - בינך וביני
TTITLE11=לואיג'י - המנהיג (נלך בעקבותיו)
TTITLE12=יוני נמרי - החבר הכי טוב שלי
TTITLE13=מלי ברונשטיין - אתה המלך
TTITLE14=ג'וזי כץ ושמוליק קראוס - אלישבע מה נחמדת
TTITLE15=עדנה לב ויגאל בשן - צריך לשמור על הבית שלי
TTITLE16=הנשמות הטהורות - בחיק הטבע (שיר המסטול)
TTITLE17=קורין אלאל - תן לי יום
TTITLE18=מאיר ישראל - תקופת תמוז
TTITLE19=אריאל זילבר - אהבה שקטה
EXTD=
EXTT0=
EXTT1=
EXTT2=
EXTT3=
EXTT4=
EXTT5=
EXTT6=
EXTT7=
EXTT8=
EXTT9=
EXTT10=
EXTT11=
EXTT12=
EXTT13=
EXTT14=
EXTT15=
EXTT16=
EXTT17=
EXTT18=
EXTT19=
PLAYORDER=
